<svg xmlns="http://www.w3.org/2000/svg" width="1200" height="630" viewBox="0 0 1200 630" role="img" aria-labelledby="title desc">
  <title id="title">CodeAtlas preview</title>
  <desc id="desc">AI repository intelligence dashboard preview with architecture, source references, and report export.</desc>
  <defs>
    <linearGradient id="bg" x1="0" y1="0" x2="1" y2="1">
      <stop offset="0" stop-color="#f7fbff"/>
      <stop offset="0.56" stop-color="#f5f8fb"/>
      <stop offset="1" stop-color="#e8f7f4"/>
    </linearGradient>
    <linearGradient id="accent" x1="0" y1="0" x2="1" y2="1">
      <stop offset="0" stop-color="#08aeb8"/>
      <stop offset="1" stop-color="#007f78"/>
    </linearGradient>
    <filter id="shadow" x="-20%" y="-20%" width="140%" height="140%">
      <feDropShadow dx="0" dy="24" stdDeviation="28" flood-color="#101828" flood-opacity="0.12"/>
    </filter>
  </defs>
  <rect width="1200" height="630" fill="url(#bg)"/>
  <g opacity="0.42" stroke="#d8e2ec" stroke-width="1">
    <path d="M0 82h1200M0 164h1200M0 246h1200M0 328h1200M0 410h1200M0 492h1200M0 574h1200"/>
    <path d="M92 0v630M184 0v630M276 0v630M368 0v630M460 0v630M552 0v630M644 0v630M736 0v630M828 0v630M920 0v630M1012 0v630M1104 0v630"/>
  </g>
  <g transform="translate(70 66)">
    <rect x="0" y="0" width="86" height="86" rx="18" fill="url(#accent)"/>
    <path d="M22 30l21-12 21 12-21 12-21-12Z" fill="#fff"/>
    <path d="M22 45l21 12 21-12M22 59l21 12 21-12" fill="none" stroke="#fff" stroke-width="6" stroke-linecap="round" stroke-linejoin="round"/>
    <text x="112" y="37" font-family="Inter, Arial, sans-serif" font-size="30" font-weight="800" fill="#101828">CodeAtlas</text>
    <text x="112" y="72" font-family="Inter, Arial, sans-serif" font-size="18" font-weight="600" fill="#64748b">AI repository intelligence workspace</text>
  </g>
  <g filter="url(#shadow)">
    <rect x="70" y="190" width="1060" height="350" rx="26" fill="#fff" stroke="#d8e2ec"/>
    <rect x="100" y="222" width="440" height="286" rx="18" fill="#f5f8fb" stroke="#d8e2ec"/>
    <text x="130" y="272" font-family="Inter, Arial, sans-serif" font-size="34" font-weight="800" fill="#101828">Repository health</text>
    <circle cx="214" cy="382" r="74" fill="none" stroke="#d8e2ec" stroke-width="18"/>
    <path d="M214 308a74 74 0 1 1-71 94" fill="none" stroke="#007f78" stroke-width="18" stroke-linecap="round"/>
    <text x="184" y="395" font-family="Inter, Arial, sans-serif" font-size="48" font-weight="800" fill="#101828">82</text>
    <text x="306" y="350" font-family="Inter, Arial, sans-serif" font-size="20" font-weight="800" fill="#101828">Architecture</text>
    <rect x="306" y="370" width="190" height="12" rx="6" fill="#d8e2ec"/>
    <rect x="306" y="370" width="156" height="12" rx="6" fill="#14b87a"/>
    <text x="306" y="424" font-family="Inter, Arial, sans-serif" font-size="20" font-weight="800" fill="#101828">Security</text>
    <rect x="306" y="444" width="190" height="12" rx="6" fill="#d8e2ec"/>
    <rect x="306" y="444" width="132" height="12" rx="6" fill="#f59e0b"/>
  </g>
  <g filter="url(#shadow)">
    <rect x="578" y="222" width="522" height="286" rx="18" fill="#fff" stroke="#d8e2ec"/>
    <text x="612" y="272" font-family="Inter, Arial, sans-serif" font-size="34" font-weight="800" fill="#101828">Architecture map</text>
    <path d="M838 370C760 350 718 320 660 326M838 370C738 398 708 430 648 428M838 370C920 334 960 322 1020 326M838 370C924 390 960 422 1032 430" fill="none" stroke="#94a3b8" stroke-width="3"/>
    <circle cx="838" cy="370" r="58" fill="url(#accent)"/>
    <text x="798" y="364" font-family="Inter, Arial, sans-serif" font-size="18" font-weight="800" fill="#fff">checkout</text>
    <text x="807" y="388" font-family="Inter, Arial, sans-serif" font-size="18" font-weight="800" fill="#fff">service</text>
    <rect x="620" y="300" width="126" height="42" rx="10" fill="#f5f8fb" stroke="#d8e2ec"/>
    <text x="646" y="326" font-family="Inter, Arial, sans-serif" font-size="16" font-weight="700" fill="#101828">web-app</text>
    <rect x="608" y="410" width="140" height="42" rx="10" fill="#f5f8fb" stroke="#d8e2ec"/>
    <text x="636" y="436" font-family="Inter, Arial, sans-serif" font-size="16" font-weight="700" fill="#101828">inventory</text>
    <rect x="956" y="300" width="118" height="42" rx="10" fill="#f5f8fb" stroke="#d8e2ec"/>
    <text x="982" y="326" font-family="Inter, Arial, sans-serif" font-size="16" font-weight="700" fill="#101828">user-api</text>
    <rect x="944" y="410" width="136" height="42" rx="10" fill="#f5f8fb" stroke="#d8e2ec"/>
    <text x="970" y="436" font-family="Inter, Arial, sans-serif" font-size="16" font-weight="700" fill="#101828">payments</text>
  </g>
  <text x="70" y="588" font-family="Inter, Arial, sans-serif" font-size="20" font-weight="700" fill="#007f78">Analyze repositories, ask grounded AI questions, review PR risk, and export reports.</text>
</svg>
